<svg width="715.8px" height="138.8px" xmlns="http://www.w3.org/2000/svg" viewBox="-107.88749999999999 5.599999999999994 715.775 138.8" style="background: rgba(247, 247, 247, 0)" preserveAspectRatio="xMidYMid"><defs><filter id="editing-extrude-glow"><feFlood flood-color="#141414" result="flood-1"></feFlood><feMorphology operator="erode" radius="1" in="SourceAlpha" result="erode"></feMorphology><feComposite operator="in" in="flood-1" in2="erode" result="comp1"></feComposite><feConvolveMatrix order="0,0" divisor="1" in="comp1" result="convolve" kernelMatrix=""></feConvolveMatrix><feOffset dx="0" dy="0" in="convolve" result="extrude"></feOffset><feComposite operator="in" in="flood-1" in2="extrude" result="comp-extrude"></feComposite><feFlood flood-color="rgba(100%,47.05882352941174%,25.49019607843137%,0)" result="flood-2"></feFlood><feComposite operator="in" in="flood-2" in2="SourceAlpha" result="comp2"></feComposite><feMorphology operator="dilate" radius="1" in="comp2" result="dilate"></feMorphology><feOffset dx="0" dy="0" in="dilate" result="offset"></feOffset><feGaussianBlur in="offset" stdDeviation="5.8" result="blur"></feGaussianBlur><feComponentTransfer in="blur" result="shadow"><feFuncA type="linear" slope="0.8" intercept="-0.2"></feFuncA></feComponentTransfer><feMerge><feMergeNode in="shadow"></feMergeNode><feMergeNode in="comp-extrude"></feMergeNode><feMergeNode in="SourceGraphic"></feMergeNode></feMerge></filter></defs><g filter="url(#editing-extrude-glow)"><g transform="matrix(1.4,0,0,1.8,-102.6,218.3)"><path d="M 32.7 -57.2 L 8.4 -57.2 L 8.4 -67.7 L 11.6 -67.7 L 11.6 -96.5 L 8.4 -96.5 L 8.4 -107 L 32.7 -107 L 32.7 -96.5 L 29.5 -96.5 L 29.5 -67.7 L 32.7 -67.7 L 32.7 -57.2 Z M 96.9 -67.7 L 99.7 -67.7 L 99.7 -57.2 L 79.5 -57.2 L 79.5 -67.7 L 82.2 -67.7 L 82.2 -78.2 L 82.2 -78.2 Q 82.2 -80.3 81.3 -81.3 L 81.3 -81.3 L 81.3 -81.3 Q 80.4 -82.3 78.6 -82.3 L 78.6 -82.3 L 78.6 -82.3 Q 74.8 -82.3 74.8 -78.2 L 74.8 -78.2 L 74.8 -67.7 L 77.5 -67.7 L 77.5 -57.2 L 57.4 -57.2 L 57.4 -67.7 L 60.1 -67.7 L 60.1 -78.2 L 60.1 -78.2 Q 60.1 -80.3 59.2 -81.3 L 59.2 -81.3 L 59.2 -81.3 Q 58.3 -82.3 56.5 -82.3 L 56.5 -82.3 L 56.5 -82.3 Q 52.6 -82.3 52.6 -78.2 L 52.6 -78.2 L 52.6 -67.7 L 55.3 -67.7 L 55.3 -57.2 L 35.1 -57.2 L 35.1 -67.7 L 37.9 -67.7 L 37.9 -82.3 L 35.1 -82.3 L 35.1 -92.8 L 52.6 -92.8 L 52.6 -87.8 L 52.6 -87.8 Q 57.3 -93.7 64.2 -93.7 L 64.2 -93.7 L 64.2 -93.7 Q 68.1 -93.7 70.5 -91.9 L 70.5 -91.9 L 70.5 -91.9 Q 73 -90 74 -86.7 L 74 -86.7 L 74 -86.7 Q 76.3 -90 79.3 -91.8 L 79.3 -91.8 L 79.3 -91.8 Q 82.3 -93.6 86.3 -93.6 L 86.3 -93.6 L 86.3 -93.6 Q 91.6 -93.6 94.3 -90.3 L 94.3 -90.3 L 94.3 -90.3 Q 96.9 -87 96.9 -81.2 L 96.9 -81.2 L 96.9 -67.7 Z M 136.3 -67.7 L 139.1 -67.7 L 139.1 -57.2 L 122.2 -57.2 L 122.2 -61.6 L 122.2 -61.6 Q 120.8 -59.5 118.3 -57.9 L 118.3 -57.9 L 118.3 -57.9 Q 115.7 -56.3 112.1 -56.3 L 112.1 -56.3 L 112.1 -56.3 Q 107.3 -56.3 104.5 -58.9 L 104.5 -58.9 L 104.5 -58.9 Q 101.8 -61.4 101.8 -66.1 L 101.8 -66.1 L 101.8 -66.1 Q 101.8 -78.2 122.3 -78.5 L 122.3 -78.5 L 122.3 -78.5 Q 122.1 -80.7 120.7 -81.5 L 120.7 -81.5 L 120.7 -81.5 Q 119.2 -82.3 115.7 -82.3 L 115.7 -82.3 L 115.7 -82.3 Q 112.8 -82.3 109.5 -81.7 L 109.5 -81.7 L 109.5 -81.7 Q 106.2 -81.1 103.5 -80.1 L 103.5 -80.1 L 103.5 -91.8 L 103.5 -91.8 Q 106.9 -92.7 110.8 -93.2 L 110.8 -93.2 L 110.8 -93.2 Q 114.8 -93.7 118.6 -93.7 L 118.6 -93.7 L 118.6 -93.7 Q 128.1 -93.7 132.2 -90.2 L 132.2 -90.2 L 132.2 -90.2 Q 136.3 -86.8 136.3 -79.6 L 136.3 -79.6 L 136.3 -67.7 Z M 122.2 -71.8 L 122.2 -72.2 L 122.2 -72.2 Q 119.3 -72.2 117.8 -71.4 L 117.8 -71.4 L 117.8 -71.4 Q 116.2 -70.7 116.2 -68.9 L 116.2 -68.9 L 116.2 -68.9 Q 116.2 -67.8 116.9 -67.1 L 116.9 -67.1 L 116.9 -67.1 Q 117.5 -66.4 118.8 -66.4 L 118.8 -66.4 L 118.8 -66.4 Q 120.4 -66.4 121.3 -67.8 L 121.3 -67.8 L 121.3 -67.8 Q 122.2 -69.2 122.2 -71.8 L 122.2 -71.8 Z M 159.9 -42.1 L 159.9 -42.1 Q 155.3 -42.1 151.1 -42.8 L 151.1 -42.8 L 151.1 -42.8 Q 146.9 -43.4 144.6 -44.2 L 144.6 -44.2 L 144.6 -54.7 L 144.6 -54.7 Q 151.4 -53.5 156.8 -53.5 L 156.8 -53.5 L 156.8 -53.5 Q 160.4 -53.5 162.1 -54.6 L 162.1 -54.6 L 162.1 -54.6 Q 163.7 -55.7 163.7 -58.8 L 163.7 -58.8 L 163.7 -61.6 L 163.7 -61.6 Q 162.1 -59.5 159.6 -57.9 L 159.6 -57.9 L 159.6 -57.9 Q 157 -56.3 153.8 -56.3 L 153.8 -56.3 L 153.8 -56.3 Q 147.2 -56.3 143.9 -61.2 L 143.9 -61.2 L 143.9 -61.2 Q 140.6 -66 140.6 -75 L 140.6 -75 L 140.6 -75 Q 140.6 -84 143.9 -88.8 L 143.9 -88.8 L 143.9 -88.8 Q 147.2 -93.7 153.8 -93.7 L 153.8 -93.7 L 153.8 -93.7 Q 157 -93.7 159.6 -92.1 L 159.6 -92.1 L 159.6 -92.1 Q 162.1 -90.5 163.7 -88.4 L 163.7 -88.4 L 163.7 -92.8 L 181.2 -92.8 L 181.2 -82.3 L 178.4 -82.3 L 178.4 -59.8 L 178.4 -59.8 Q 178.4 -50.5 173.8 -46.3 L 173.8 -46.3 L 173.8 -46.3 Q 169.2 -42.1 159.9 -42.1 L 159.9 -42.1 Z M 160 -67.7 L 160 -67.7 Q 161.8 -67.7 162.8 -68.7 L 162.8 -68.7 L 162.8 -68.7 Q 163.7 -69.7 163.7 -71.8 L 163.7 -71.8 L 163.7 -78.2 L 163.7 -78.2 Q 163.7 -80.3 162.8 -81.3 L 162.8 -81.3 L 162.8 -81.3 Q 161.8 -82.3 160 -82.3 L 160 -82.3 L 160 -82.3 Q 158.1 -82.3 157.2 -81.3 L 157.2 -81.3 L 157.2 -81.3 Q 156.3 -80.3 156.3 -78.2 L 156.3 -78.2 L 156.3 -71.8 L 156.3 -71.8 Q 156.3 -69.7 157.2 -68.7 L 157.2 -68.7 L 157.2 -68.7 Q 158.1 -67.7 160 -67.7 L 160 -67.7 Z M 202.1 -56.3 L 202.1 -56.3 Q 193 -56.3 187.9 -61.1 L 187.9 -61.1 L 187.9 -61.1 Q 182.8 -65.9 182.8 -75 L 182.8 -75 L 182.8 -75 Q 182.8 -84.2 187.9 -88.9 L 187.9 -88.9 L 187.9 -88.9 Q 193 -93.7 202.1 -93.7 L 202.1 -93.7 L 202.1 -93.7 Q 211.1 -93.7 215.1 -89 L 215.1 -89 L 215.1 -89 Q 219.1 -84.3 219.1 -77.3 L 219.1 -77.3 L 219.1 -72.7 L 198.4 -72.7 L 198.4 -72.3 L 198.4 -72.3 Q 198.4 -70 199.8 -68.8 L 199.8 -68.8 L 199.8 -68.8 Q 201.2 -67.7 204.5 -67.7 L 204.5 -67.7 L 204.5 -67.7 Q 208.4 -67.7 211.9 -68.3 L 211.9 -68.3 L 211.9 -68.3 Q 215.4 -68.9 218 -69.8 L 218 -69.8 L 218 -59.5 L 218 -59.5 Q 215.8 -58.3 211.5 -57.3 L 211.5 -57.3 L 211.5 -57.3 Q 207.1 -56.3 202.1 -56.3 L 202.1 -56.3 Z M 198.4 -79.7 L 205.8 -79.7 L 205.8 -80.5 L 205.8 -80.5 Q 205.8 -82.7 204.9 -83.6 L 204.9 -83.6 L 204.9 -83.6 Q 203.9 -84.6 202.1 -84.6 L 202.1 -84.6 L 202.1 -84.6 Q 200.2 -84.6 199.3 -83.6 L 199.3 -83.6 L 199.3 -83.6 Q 198.4 -82.6 198.4 -80.5 L 198.4 -80.5 L 198.4 -79.7 Z M 236.6 -56.3 L 236.6 -56.3 Q 228.5 -56.3 221 -58.9 L 221 -58.9 L 221 -68.4 L 231.4 -68.4 L 231.4 -67.7 L 231.4 -67.7 Q 231.4 -64.6 235.3 -64.6 L 235.3 -64.6 L 235.3 -64.6 Q 238.8 -64.6 238.8 -67 L 238.8 -67 L 238.8 -67 Q 238.8 -68.3 237.8 -68.9 L 237.8 -68.9 L 237.8 -68.9 Q 236.8 -69.6 234.3 -70 L 234.3 -70 L 231.1 -70.6 L 231.1 -70.6 Q 221 -72.4 221 -82 L 221 -82 L 221 -82 Q 221 -87.6 225.3 -90.6 L 225.3 -90.6 L 225.3 -90.6 Q 229.5 -93.7 236.6 -93.7 L 236.6 -93.7 L 236.6 -93.7 Q 244.6 -93.7 250.1 -91 L 250.1 -91 L 250.1 -82.1 L 240.4 -82.1 L 240.4 -82.8 L 240.4 -82.8 Q 240.4 -84 239.6 -84.7 L 239.6 -84.7 L 239.6 -84.7 Q 238.7 -85.4 237 -85.4 L 237 -85.4 L 237 -85.4 Q 233.8 -85.4 233.8 -83.3 L 233.8 -83.3 L 233.8 -83.3 Q 233.8 -82.2 234.7 -81.7 L 234.7 -81.7 L 234.7 -81.7 Q 235.6 -81.1 238 -80.6 L 238 -80.6 L 241.6 -79.9 L 241.6 -79.9 Q 247.3 -78.8 249.8 -75.8 L 249.8 -75.8 L 249.8 -75.8 Q 252.2 -72.9 252.2 -68.3 L 252.2 -68.3 L 252.2 -68.3 Q 252.2 -62.5 248.1 -59.4 L 248.1 -59.4 L 248.1 -59.4 Q 244.1 -56.3 236.6 -56.3 L 236.6 -56.3 Z M 321.8 -82.8 L 321.8 -73.2 L 318.6 -73.2 L 318.6 -60.4 L 318.6 -60.4 Q 315.8 -58.8 310.4 -57.6 L 310.4 -57.6 L 310.4 -57.6 Q 305 -56.3 298.7 -56.3 L 298.7 -56.3 L 298.7 -56.3 Q 286.8 -56.3 280 -62.6 L 280 -62.6 L 280 -62.6 Q 273.2 -68.9 273.2 -82.1 L 273.2 -82.1 L 273.2 -82.1 Q 273.2 -95.6 279.9 -101.8 L 279.9 -101.8 L 279.9 -101.8 Q 286.7 -107.9 299.2 -107.9 L 299.2 -107.9 L 299.2 -107.9 Q 305.3 -107.9 310.6 -106.6 L 310.6 -106.6 L 310.6 -106.6 Q 315.9 -105.3 318.6 -103.7 L 318.6 -103.7 L 318.6 -88.4 L 302.6 -88.4 L 302.6 -91.5 L 302.6 -91.5 Q 302.6 -94.1 301.5 -95.3 L 301.5 -95.3 L 301.5 -95.3 Q 300.4 -96.5 298 -96.5 L 298 -96.5 L 298 -96.5 Q 295.5 -96.5 294.4 -95.3 L 294.4 -95.3 L 294.4 -95.3 Q 293.3 -94.1 293.3 -91.5 L 293.3 -91.5 L 293.3 -72.8 L 293.3 -72.8 Q 293.3 -70.1 294.4 -68.9 L 294.4 -68.9 L 294.4 -68.9 Q 295.5 -67.7 298 -67.7 L 298 -67.7 L 298 -67.7 Q 300.4 -67.7 301.5 -68.9 L 301.5 -68.9 L 301.5 -68.9 Q 302.6 -70.1 302.6 -72.8 L 302.6 -72.8 L 302.6 -73.2 L 299.2 -73.2 L 299.2 -82.8 L 321.8 -82.8 Z M 358 -67.7 L 360.8 -67.7 L 360.8 -57.2 L 343.9 -57.2 L 343.9 -61.6 L 343.9 -61.6 Q 342.5 -59.5 340 -57.9 L 340 -57.9 L 340 -57.9 Q 337.4 -56.3 333.8 -56.3 L 333.8 -56.3 L 333.8 -56.3 Q 329 -56.3 326.2 -58.9 L 326.2 -58.9 L 326.2 -58.9 Q 323.5 -61.4 323.5 -66.1 L 323.5 -66.1 L 323.5 -66.1 Q 323.5 -78.2 344 -78.5 L 344 -78.5 L 344 -78.5 Q 343.8 -80.7 342.4 -81.5 L 342.4 -81.5 L 342.4 -81.5 Q 340.9 -82.3 337.4 -82.3 L 337.4 -82.3 L 337.4 -82.3 Q 334.5 -82.3 331.2 -81.7 L 331.2 -81.7 L 331.2 -81.7 Q 327.9 -81.1 325.2 -80.1 L 325.2 -80.1 L 325.2 -91.8 L 325.2 -91.8 Q 328.5 -92.7 332.5 -93.2 L 332.5 -93.2 L 332.5 -93.2 Q 336.5 -93.7 340.3 -93.7 L 340.3 -93.7 L 340.3 -93.7 Q 349.8 -93.7 353.9 -90.2 L 353.9 -90.2 L 353.9 -90.2 Q 358 -86.8 358 -79.6 L 358 -79.6 L 358 -67.7 Z M 343.9 -71.8 L 343.9 -72.2 L 343.9 -72.2 Q 341 -72.2 339.5 -71.4 L 339.5 -71.4 L 339.5 -71.4 Q 337.9 -70.7 337.9 -68.9 L 337.9 -68.9 L 337.9 -68.9 Q 337.9 -67.8 338.6 -67.1 L 338.6 -67.1 L 338.6 -67.1 Q 339.2 -66.4 340.5 -66.4 L 340.5 -66.4 L 340.5 -66.4 Q 342.1 -66.4 343 -67.8 L 343 -67.8 L 343 -67.8 Q 343.9 -69.2 343.9 -71.8 L 343.9 -71.8 Z M 383.2 -57.2 L 362.9 -57.2 L 362.9 -67.7 L 365.7 -67.7 L 365.7 -96.5 L 362.9 -96.5 L 362.9 -107 L 380.4 -107 L 380.4 -67.7 L 383.2 -67.7 L 383.2 -57.2 Z M 405.6 -57.2 L 385.3 -57.2 L 385.3 -67.7 L 388.1 -67.7 L 388.1 -96.5 L 385.3 -96.5 L 385.3 -107 L 402.8 -107 L 402.8 -67.7 L 405.6 -67.7 L 405.6 -57.2 Z M 426.7 -56.3 L 426.7 -56.3 Q 417.6 -56.3 412.5 -61.1 L 412.5 -61.1 L 412.5 -61.1 Q 407.4 -65.9 407.4 -75 L 407.4 -75 L 407.4 -75 Q 407.4 -84.2 412.5 -88.9 L 412.5 -88.9 L 412.5 -88.9 Q 417.6 -93.7 426.7 -93.7 L 426.7 -93.7 L 426.7 -93.7 Q 435.7 -93.7 439.7 -89 L 439.7 -89 L 439.7 -89 Q 443.7 -84.3 443.7 -77.3 L 443.7 -77.3 L 443.7 -72.7 L 423 -72.7 L 423 -72.3 L 423 -72.3 Q 423 -70 424.4 -68.8 L 424.4 -68.8 L 424.4 -68.8 Q 425.8 -67.7 429.1 -67.7 L 429.1 -67.7 L 429.1 -67.7 Q 433 -67.7 436.5 -68.3 L 436.5 -68.3 L 436.5 -68.3 Q 440 -68.9 442.7 -69.8 L 442.7 -69.8 L 442.7 -59.5 L 442.7 -59.5 Q 440.4 -58.3 436.1 -57.3 L 436.1 -57.3 L 436.1 -57.3 Q 431.8 -56.3 426.7 -56.3 L 426.7 -56.3 Z M 423 -79.7 L 430.4 -79.7 L 430.4 -80.5 L 430.4 -80.5 Q 430.4 -82.7 429.5 -83.6 L 429.5 -83.6 L 429.5 -83.6 Q 428.6 -84.6 426.7 -84.6 L 426.7 -84.6 L 426.7 -84.6 Q 424.9 -84.6 423.9 -83.6 L 423.9 -83.6 L 423.9 -83.6 Q 423 -82.6 423 -80.5 L 423 -80.5 L 423 -79.7 Z M 473 -93.7 L 473 -93.7 Q 474.3 -93.7 475.4 -93.4 L 475.4 -93.4 L 475.4 -93.4 Q 476.6 -93.2 477.3 -92.8 L 477.3 -92.8 L 477.3 -80.6 L 477.3 -80.6 Q 474.7 -81.7 471.7 -81.7 L 471.7 -81.7 L 471.7 -81.7 Q 467.7 -81.7 465.5 -79.6 L 465.5 -79.6 L 465.5 -79.6 Q 463.3 -77.4 463.3 -73.3 L 463.3 -73.3 L 463.3 -67.7 L 469.1 -67.7 L 469.1 -57.2 L 445.8 -57.2 L 445.8 -67.7 L 448.6 -67.7 L 448.6 -82.3 L 445.8 -82.3 L 445.8 -92.8 L 463.3 -92.8 L 463.3 -88.1 L 463.3 -88.1 Q 465.1 -90.8 467.4 -92.3 L 467.4 -92.3 L 467.4 -92.3 Q 469.7 -93.7 473 -93.7 L 473 -93.7 Z M 500.1 -92.8 L 517.9 -92.8 L 517.9 -82.3 L 515.5 -82.3 L 507.1 -60.1 L 507.1 -60.1 Q 504 -51.7 499.9 -47.5 L 499.9 -47.5 L 499.9 -47.5 Q 495.9 -43.3 489.3 -43.3 L 489.3 -43.3 L 489.3 -43.3 Q 486.6 -43.3 483.9 -43.9 L 483.9 -43.9 L 483.9 -43.9 Q 481.1 -44.4 478.9 -45.4 L 478.9 -45.4 L 478.9 -57 L 487.7 -57 L 487.7 -56.3 L 487.7 -56.3 Q 487.7 -54.7 489.4 -54.7 L 489.4 -54.7 L 489.4 -54.7 Q 490.9 -54.7 491.6 -56.1 L 491.6 -56.1 L 481.5 -82.3 L 479.1 -82.3 L 479.1 -92.8 L 498.1 -92.8 L 498.1 -82.3 L 495.9 -82.3 L 499.2 -72.3 L 502.3 -82.3 L 500.1 -82.3 L 500.1 -92.8 Z" fill="#545454"></path></g></g><style>text {
  font-size: 64px;
  font-family: Arial Black;
  dominant-baseline: central;
  text-anchor: middle;
}</style></svg>