<svg width="581.1px" height="138.8px" xmlns="http://www.w3.org/2000/svg" viewBox="-40.560955810546886 5.599999999999994 581.1219116210938 138.8" style="background: rgba(247, 247, 247, 0)" preserveAspectRatio="xMidYMid"><defs><filter id="editing-extrude-glow"><feFlood flood-color="#141414" result="flood-1"></feFlood><feMorphology operator="erode" radius="1" in="SourceAlpha" result="erode"></feMorphology><feComposite operator="in" in="flood-1" in2="erode" result="comp1"></feComposite><feConvolveMatrix order="0,0" divisor="1" in="comp1" result="convolve" kernelMatrix=""></feConvolveMatrix><feOffset dx="0" dy="0" in="convolve" result="extrude"></feOffset><feComposite operator="in" in="flood-1" in2="extrude" result="comp-extrude"></feComposite><feFlood flood-color="rgba(100%,47.05882352941174%,25.49019607843137%,0)" result="flood-2"></feFlood><feComposite operator="in" in="flood-2" in2="SourceAlpha" result="comp2"></feComposite><feMorphology operator="dilate" radius="1" in="comp2" result="dilate"></feMorphology><feOffset dx="0" dy="0" in="dilate" result="offset"></feOffset><feGaussianBlur in="offset" stdDeviation="5.8" result="blur"></feGaussianBlur><feComponentTransfer in="blur" result="shadow"><feFuncA type="linear" slope="0.8" intercept="-0.2"></feFuncA></feComponentTransfer><feMerge><feMergeNode in="shadow"></feMergeNode><feMergeNode in="comp-extrude"></feMergeNode><feMergeNode in="SourceGraphic"></feMergeNode></feMerge></filter></defs><g filter="url(#editing-extrude-glow)"><g transform="matrix(1.3,0,0,1.6,-0.1,183.1)"><path d="M 34.9 -45.1 L -8.3 -45.1 L -8.3 -55.6 L -5.1 -55.6 L -5.1 -84.4 L -8.3 -84.4 L -8.3 -94.8 L 34.9 -94.8 L 34.9 -75.5 L 20.5 -75.5 L 20.5 -84.4 L 12.8 -84.4 L 12.8 -74.2 L 18.4 -74.2 L 18.4 -66.9 L 12.8 -66.9 L 12.8 -55.6 L 20.5 -55.6 L 20.5 -65.7 L 34.9 -65.7 L 34.9 -45.1 Z M 71.7 -55.6 L 74.5 -55.6 L 74.5 -45.1 L 57.6 -45.1 L 57.6 -49.4 L 57.6 -49.4 Q 56.2 -47.4 53.7 -45.8 L 53.7 -45.8 L 53.7 -45.8 Q 51.1 -44.2 47.5 -44.2 L 47.5 -44.2 L 47.5 -44.2 Q 42.7 -44.2 39.9 -46.7 L 39.9 -46.7 L 39.9 -46.7 Q 37.2 -49.3 37.2 -54 L 37.2 -54 L 37.2 -54 Q 37.2 -66 57.7 -66.4 L 57.7 -66.4 L 57.7 -66.4 Q 57.5 -68.5 56.1 -69.3 L 56.1 -69.3 L 56.1 -69.3 Q 54.6 -70.1 51.1 -70.1 L 51.1 -70.1 L 51.1 -70.1 Q 48.2 -70.1 44.9 -69.5 L 44.9 -69.5 L 44.9 -69.5 Q 41.6 -68.9 38.8 -67.9 L 38.8 -67.9 L 38.8 -79.7 L 38.8 -79.7 Q 42.2 -80.5 46.2 -81 L 46.2 -81 L 46.2 -81 Q 50.2 -81.5 53.9 -81.5 L 53.9 -81.5 L 53.9 -81.5 Q 63.5 -81.5 67.6 -78.1 L 67.6 -78.1 L 67.6 -78.1 Q 71.7 -74.6 71.7 -67.4 L 71.7 -67.4 L 71.7 -55.6 Z M 57.6 -59.6 L 57.6 -60 L 57.6 -60 Q 54.7 -60 53.1 -59.3 L 53.1 -59.3 L 53.1 -59.3 Q 51.6 -58.5 51.6 -56.7 L 51.6 -56.7 L 51.6 -56.7 Q 51.6 -55.6 52.3 -54.9 L 52.3 -54.9 L 52.3 -54.9 Q 52.9 -54.3 54.1 -54.3 L 54.1 -54.3 L 54.1 -54.3 Q 55.8 -54.3 56.7 -55.7 L 56.7 -55.7 L 56.7 -55.7 Q 57.6 -57.1 57.6 -59.6 L 57.6 -59.6 Z M 92.1 -44.2 L 92.1 -44.2 Q 84 -44.2 76.5 -46.7 L 76.5 -46.7 L 76.5 -56.2 L 86.9 -56.2 L 86.9 -55.6 L 86.9 -55.6 Q 86.9 -52.5 90.8 -52.5 L 90.8 -52.5 L 90.8 -52.5 Q 94.3 -52.5 94.3 -54.8 L 94.3 -54.8 L 94.3 -54.8 Q 94.3 -56.1 93.3 -56.8 L 93.3 -56.8 L 93.3 -56.8 Q 92.3 -57.4 89.8 -57.9 L 89.8 -57.9 L 86.6 -58.4 L 86.6 -58.4 Q 76.5 -60.2 76.5 -69.8 L 76.5 -69.8 L 76.5 -69.8 Q 76.5 -75.4 80.8 -78.5 L 80.8 -78.5 L 80.8 -78.5 Q 85 -81.5 92.2 -81.5 L 92.2 -81.5 L 92.2 -81.5 Q 100.2 -81.5 105.7 -78.8 L 105.7 -78.8 L 105.7 -70 L 95.9 -70 L 95.9 -70.6 L 95.9 -70.6 Q 95.9 -71.9 95.1 -72.5 L 95.1 -72.5 L 95.1 -72.5 Q 94.2 -73.2 92.5 -73.2 L 92.5 -73.2 L 92.5 -73.2 Q 89.3 -73.2 89.3 -71.2 L 89.3 -71.2 L 89.3 -71.2 Q 89.3 -70.1 90.2 -69.5 L 90.2 -69.5 L 90.2 -69.5 Q 91.1 -68.9 93.5 -68.4 L 93.5 -68.4 L 97.1 -67.7 L 97.1 -67.7 Q 102.8 -66.6 105.3 -63.7 L 105.3 -63.7 L 105.3 -63.7 Q 107.7 -60.7 107.7 -56.1 L 107.7 -56.1 L 107.7 -56.1 Q 107.7 -50.3 103.6 -47.2 L 103.6 -47.2 L 103.6 -47.2 Q 99.6 -44.2 92.1 -44.2 L 92.1 -44.2 Z M 130.5 -80.6 L 148.3 -80.6 L 148.3 -70.1 L 145.9 -70.1 L 137.5 -47.9 L 137.5 -47.9 Q 134.3 -39.6 130.3 -35.4 L 130.3 -35.4 L 130.3 -35.4 Q 126.3 -31.2 119.7 -31.2 L 119.7 -31.2 L 119.7 -31.2 Q 117 -31.2 114.2 -31.7 L 114.2 -31.7 L 114.2 -31.7 Q 111.5 -32.3 109.2 -33.2 L 109.2 -33.2 L 109.2 -44.8 L 118.1 -44.8 L 118.1 -44.2 L 118.1 -44.2 Q 118.1 -42.6 119.7 -42.6 L 119.7 -42.6 L 119.7 -42.6 Q 121.2 -42.6 122 -44 L 122 -44 L 111.9 -70.1 L 109.4 -70.1 L 109.4 -80.6 L 128.4 -80.6 L 128.4 -70.1 L 126.3 -70.1 L 129.6 -60.2 L 132.7 -70.1 L 130.5 -70.1 L 130.5 -80.6 Z M 169.5 -45.1 L 169.5 -55.6 L 172.7 -55.6 L 172.7 -84.4 L 169.5 -84.4 L 169.5 -94.8 L 197.6 -94.8 L 197.6 -94.8 Q 205.9 -94.8 210.2 -91.3 L 210.2 -91.3 L 210.2 -91.3 Q 214.6 -87.7 214.6 -79.8 L 214.6 -79.8 L 214.6 -79.8 Q 214.6 -71.9 210.2 -68.3 L 210.2 -68.3 L 210.2 -68.3 Q 205.9 -64.8 197.6 -64.8 L 197.6 -64.8 L 190.7 -64.8 L 190.7 -55.6 L 196.8 -55.6 L 196.8 -45.1 L 169.5 -45.1 Z M 190.7 -73.9 L 192.8 -73.9 L 192.8 -73.9 Q 196.5 -73.9 196.5 -78 L 196.5 -78 L 196.5 -80.3 L 196.5 -80.3 Q 196.5 -82.4 195.6 -83.4 L 195.6 -83.4 L 195.6 -83.4 Q 194.7 -84.4 192.8 -84.4 L 192.8 -84.4 L 190.7 -84.4 L 190.7 -73.9 Z M 256.3 -55.6 L 259.1 -55.6 L 259.1 -45.1 L 238.9 -45.1 L 238.9 -55.6 L 241.6 -55.6 L 241.6 -66 L 241.6 -66 Q 241.6 -68.2 240.7 -69.2 L 240.7 -69.2 L 240.7 -69.2 Q 239.8 -70.1 238 -70.1 L 238 -70.1 L 238 -70.1 Q 234.2 -70.1 234.2 -66 L 234.2 -66 L 234.2 -55.6 L 236.9 -55.6 L 236.9 -45.1 L 216.6 -45.1 L 216.6 -55.6 L 219.5 -55.6 L 219.5 -84.4 L 216.6 -84.4 L 216.6 -94.8 L 234.2 -94.8 L 234.2 -75.6 L 234.2 -75.6 Q 236.5 -78.6 239.3 -80.1 L 239.3 -80.1 L 239.3 -80.1 Q 242 -81.5 245.7 -81.5 L 245.7 -81.5 L 245.7 -81.5 Q 251 -81.5 253.7 -78.2 L 253.7 -78.2 L 253.7 -78.2 Q 256.3 -74.9 256.3 -69.1 L 256.3 -69.1 L 256.3 -55.6 Z M 280.3 -44.2 L 280.3 -44.2 Q 271.2 -44.2 266 -48.9 L 266 -48.9 L 266 -48.9 Q 260.9 -53.7 260.9 -62.8 L 260.9 -62.8 L 260.9 -62.8 Q 260.9 -72 266 -76.8 L 266 -76.8 L 266 -76.8 Q 271.2 -81.5 280.3 -81.5 L 280.3 -81.5 L 280.3 -81.5 Q 289.5 -81.5 294.5 -76.7 L 294.5 -76.7 L 294.5 -76.7 Q 299.6 -71.9 299.6 -62.8 L 299.6 -62.8 L 299.6 -62.8 Q 299.6 -53.7 294.5 -48.9 L 294.5 -48.9 L 294.5 -48.9 Q 289.3 -44.2 280.3 -44.2 L 280.3 -44.2 Z M 280.3 -55.6 L 280.3 -55.6 Q 282.1 -55.6 283 -56.5 L 283 -56.5 L 283 -56.5 Q 284 -57.5 284 -59.6 L 284 -59.6 L 284 -66 L 284 -66 Q 284 -68.2 283 -69.2 L 283 -69.2 L 283 -69.2 Q 282.1 -70.1 280.3 -70.1 L 280.3 -70.1 L 280.3 -70.1 Q 278.4 -70.1 277.5 -69.2 L 277.5 -69.2 L 277.5 -69.2 Q 276.5 -68.2 276.5 -66 L 276.5 -66 L 276.5 -59.6 L 276.5 -59.6 Q 276.5 -57.5 277.5 -56.5 L 277.5 -56.5 L 277.5 -56.5 Q 278.4 -55.6 280.3 -55.6 L 280.3 -55.6 Z M 317.4 -44.2 L 317.4 -44.2 Q 310.7 -44.2 307.2 -47.5 L 307.2 -47.5 L 307.2 -47.5 Q 303.8 -50.8 303.8 -58.6 L 303.8 -58.6 L 303.8 -70.1 L 301 -70.1 L 301 -80.6 L 301 -80.6 Q 303.4 -80.6 304.6 -81.9 L 304.6 -81.9 L 304.6 -81.9 Q 305.9 -83.1 305.9 -85.3 L 305.9 -85.3 L 305.9 -88.2 L 319.4 -88.2 L 319.4 -80.6 L 328.1 -80.6 L 328.1 -70.1 L 319.4 -70.1 L 319.4 -59.6 L 319.4 -59.6 Q 319.4 -57.5 320.3 -56.5 L 320.3 -56.5 L 320.3 -56.5 Q 321.3 -55.6 323.1 -55.6 L 323.1 -55.6 L 323.1 -55.6 Q 325.6 -55.6 328.4 -56.1 L 328.4 -56.1 L 328.4 -46.1 L 328.4 -46.1 Q 326.7 -45.4 323.6 -44.8 L 323.6 -44.8 L 323.6 -44.8 Q 320.6 -44.2 317.4 -44.2 L 317.4 -44.2 Z M 349.6 -44.2 L 349.6 -44.2 Q 340.5 -44.2 335.4 -48.9 L 335.4 -48.9 L 335.4 -48.9 Q 330.2 -53.7 330.2 -62.8 L 330.2 -62.8 L 330.2 -62.8 Q 330.2 -72 335.4 -76.8 L 335.4 -76.8 L 335.4 -76.8 Q 340.5 -81.5 349.6 -81.5 L 349.6 -81.5 L 349.6 -81.5 Q 358.8 -81.5 363.8 -76.7 L 363.8 -76.7 L 363.8 -76.7 Q 368.9 -71.9 368.9 -62.8 L 368.9 -62.8 L 368.9 -62.8 Q 368.9 -53.7 363.8 -48.9 L 363.8 -48.9 L 363.8 -48.9 Q 358.7 -44.2 349.6 -44.2 L 349.6 -44.2 Z M 349.6 -55.6 L 349.6 -55.6 Q 351.4 -55.6 352.3 -56.5 L 352.3 -56.5 L 352.3 -56.5 Q 353.3 -57.5 353.3 -59.6 L 353.3 -59.6 L 353.3 -66 L 353.3 -66 Q 353.3 -68.2 352.3 -69.2 L 352.3 -69.2 L 352.3 -69.2 Q 351.4 -70.1 349.6 -70.1 L 349.6 -70.1 L 349.6 -70.1 Q 347.7 -70.1 346.8 -69.2 L 346.8 -69.2 L 346.8 -69.2 Q 345.9 -68.2 345.9 -66 L 345.9 -66 L 345.9 -59.6 L 345.9 -59.6 Q 345.9 -57.5 346.8 -56.5 L 346.8 -56.5 L 346.8 -56.5 Q 347.7 -55.6 349.6 -55.6 L 349.6 -55.6 Z M 386.5 -44.2 L 386.5 -44.2 Q 378.4 -44.2 370.9 -46.7 L 370.9 -46.7 L 370.9 -56.2 L 381.3 -56.2 L 381.3 -55.6 L 381.3 -55.6 Q 381.3 -52.5 385.2 -52.5 L 385.2 -52.5 L 385.2 -52.5 Q 388.7 -52.5 388.7 -54.8 L 388.7 -54.8 L 388.7 -54.8 Q 388.7 -56.1 387.7 -56.8 L 387.7 -56.8 L 387.7 -56.8 Q 386.7 -57.4 384.2 -57.9 L 384.2 -57.9 L 381 -58.4 L 381 -58.4 Q 370.9 -60.2 370.9 -69.8 L 370.9 -69.8 L 370.9 -69.8 Q 370.9 -75.4 375.2 -78.5 L 375.2 -78.5 L 375.2 -78.5 Q 379.4 -81.5 386.6 -81.5 L 386.6 -81.5 L 386.6 -81.5 Q 394.6 -81.5 400.1 -78.8 L 400.1 -78.8 L 400.1 -70 L 390.3 -70 L 390.3 -70.6 L 390.3 -70.6 Q 390.3 -71.9 389.5 -72.5 L 389.5 -72.5 L 389.5 -72.5 Q 388.6 -73.2 386.9 -73.2 L 386.9 -73.2 L 386.9 -73.2 Q 383.7 -73.2 383.7 -71.2 L 383.7 -71.2 L 383.7 -71.2 Q 383.7 -70.1 384.6 -69.5 L 384.6 -69.5 L 384.6 -69.5 Q 385.5 -68.9 387.9 -68.4 L 387.9 -68.4 L 391.5 -67.7 L 391.5 -67.7 Q 397.2 -66.6 399.7 -63.7 L 399.7 -63.7 L 399.7 -63.7 Q 402.1 -60.7 402.1 -56.1 L 402.1 -56.1 L 402.1 -56.1 Q 402.1 -50.3 398 -47.2 L 398 -47.2 L 398 -47.2 Q 394 -44.2 386.5 -44.2 L 386.5 -44.2 Z" fill="#545454"></path></g></g><style>text {
  font-size: 64px;
  font-family: Arial Black;
  dominant-baseline: central;
  text-anchor: middle;
}</style></svg>